<svg xmlns="http://www.w3.org/2000/svg" viewBox="0 0 512 512" role="img" aria-label="Geo Gecko stale"><defs>
      <filter id="shadow" x="-30%" y="-30%" width="160%" height="160%"><feDropShadow dx="0" dy="8" stdDeviation="8" flood-color="#0F172A" flood-opacity="0.18"/></filter>
      <linearGradient id="iris" x1="0" x2="0" y1="0" y2="1"><stop stop-color="#38BDF8"/><stop offset="1" stop-color="#2563EB"/></linearGradient>
      <linearGradient id="bodyGrad" x1="0" x2="0" y1="0" y2="1"><stop stop-color="#FFFFFF"/><stop offset="1" stop-color="#EAF0F6"/></linearGradient>
    </defs><g transform="translate(0 0) scale(1.0)" transform-origin="256 256">
      <!-- tail underlay -->
      <path d="M332 356 C408 365 451 335 448 288 C445 244 405 235 381 256 C365 270 370 295 392 300" fill="none" stroke="#0F172A" stroke-width="34" stroke-linecap="round"/>
      <path d="M332 356 C408 365 451 335 448 288 C445 244 405 235 381 256 C365 270 370 295 392 300" fill="none" stroke="#38BDF8" stroke-width="21" stroke-linecap="round"/>
      <!-- feet and legs -->
      <ellipse cx="166" cy="420" rx="56" ry="28" fill="url(#bodyGrad)" stroke="#0F172A" stroke-width="10"/>
      <ellipse cx="346" cy="420" rx="56" ry="28" fill="url(#bodyGrad)" stroke="#0F172A" stroke-width="10"/>
      <!-- body -->
      <path d="M196 245 C162 280 162 366 194 407 C220 441 292 441 318 407 C350 366 350 280 316 245 Z" fill="url(#bodyGrad)" stroke="#0F172A" stroke-width="10"/>
      <ellipse cx="256" cy="355" rx="55" ry="75" fill="#FFFFFF" opacity="0.72"/>
      <!-- arms -->
      <path d="M195 294 C157 310 148 344 161 371" fill="none" stroke="#0F172A" stroke-width="28" stroke-linecap="round"/><path d="M195 294 C157 310 148 344 161 371" fill="none" stroke="url(#bodyGrad)" stroke-width="16" stroke-linecap="round"/>
      <path d="M317 294 C355 310 364 344 351 371" fill="none" stroke="#0F172A" stroke-width="28" stroke-linecap="round"/><path d="M317 294 C355 310 364 344 351 371" fill="none" stroke="url(#bodyGrad)" stroke-width="16" stroke-linecap="round"/>
      <!-- head -->
      <path d="M132 170 C130 93 183 62 256 68 C329 62 382 93 380 170 C378 226 326 260 256 258 C186 260 134 226 132 170 Z" fill="url(#bodyGrad)" stroke="#0F172A" stroke-width="11"/>
      <!-- eye bulges -->
      <ellipse cx="191" cy="132" rx="56" ry="66" fill="url(#bodyGrad)" stroke="#0F172A" stroke-width="10"/>
      <ellipse cx="321" cy="132" rx="56" ry="66" fill="url(#bodyGrad)" stroke="#0F172A" stroke-width="10"/>
      <ellipse cx="195" cy="145" rx="43" ry="52" fill="url(#iris)" stroke="#0F172A" stroke-width="10"/><ellipse cx="317" cy="145" rx="43" ry="52" fill="url(#iris)" stroke="#0F172A" stroke-width="10"/>
        <ellipse cx="195" cy="151" rx="23" ry="33" fill="#0F172A"/><ellipse cx="317" cy="151" rx="23" ry="33" fill="#0F172A"/>
        <circle cx="178" cy="125" r="11" fill="#fff"/><circle cx="300" cy="125" r="11" fill="#fff"/><circle cx="207" cy="166" r="5" fill="#38BDF8"/><circle cx="329" cy="166" r="5" fill="#38BDF8"/>
      <!-- spots -->
      <circle cx="142" cy="190" r="8" fill="#94A3B8"/><circle cx="158" cy="209" r="5" fill="#94A3B8"/><circle cx="370" cy="190" r="8" fill="#94A3B8"/><circle cx="354" cy="209" r="5" fill="#94A3B8"/>
      <circle cx="216" cy="280" r="6" fill="#94A3B8"/><circle cx="296" cy="287" r="5" fill="#94A3B8"/>
      <!-- nose and mouth -->
      <circle cx="247" cy="198" r="4" fill="#0F172A"/><circle cx="265" cy="198" r="4" fill="#0F172A"/>
      <path d="M213 214 Q256 238 299 214" fill="none" stroke="#0F172A" stroke-width="8" stroke-linecap="round"/>
      <!-- toes -->
      <circle cx="137" cy="423" r="6" fill="#F8FAFC" stroke="#0F172A" stroke-width="4"/><circle cx="158" cy="429" r="6" fill="#F8FAFC" stroke="#0F172A" stroke-width="4"/><circle cx="179" cy="429" r="6" fill="#F8FAFC" stroke="#0F172A" stroke-width="4"/>
      <circle cx="333" cy="429" r="6" fill="#F8FAFC" stroke="#0F172A" stroke-width="4"/><circle cx="354" cy="429" r="6" fill="#F8FAFC" stroke="#0F172A" stroke-width="4"/><circle cx="375" cy="423" r="6" fill="#F8FAFC" stroke="#0F172A" stroke-width="4"/>
      
    </g><g transform="translate(390 285) scale(0.75)" fill="none" stroke="#38BDF8" stroke-width="14" stroke-linecap="round" opacity="1">
      <circle cx="0" cy="68" r="9" fill="#38BDF8" stroke="none"/>
      <path d="M0 38 A30 30 0 0 1 30 68"/>
      <path d="M0 4 A64 64 0 0 1 64 68"/>
    </g><g font-family="sans-serif" font-weight="700" fill="#64748B"><text x="365" y="92" font-size="34">Z</text><text x="402" y="62" font-size="28">Z</text><text x="430" y="38" font-size="22">Z</text></g></svg>