<svg xmlns="http://www.w3.org/2000/svg" viewBox="0 0 512 512" role="img" aria-labelledby="title desc">
  <title id="title">Geo Gecko head mark</title>
  <desc id="desc">A flat gecko head with scanner eyes and a small RSS signal.</desc>
  <defs>
    <linearGradient id="body" x1="0" y1="0" x2="0" y2="1">
      <stop stop-color="#E6FFFA"/>
      <stop offset="1" stop-color="#B7F7E4"/>
    </linearGradient>
  </defs>
  <path d="M77 253c0-126 77-192 179-192s179 66 179 192c0 113-79 169-179 169S77 366 77 253Z"
        fill="url(#body)" stroke="#0D1117" stroke-width="18"/>
  <path d="M104 194c4-71 45-113 100-113 53 0 91 43 91 104 0 66-35 112-96 112-64 0-99-39-95-103Z"
        fill="#F0F6FC" stroke="#0D1117" stroke-width="16"/>
  <path d="M408 194c-4-71-45-113-100-113-53 0-91 43-91 104 0 66 35 112 96 112 64 0 99-39 95-103Z"
        fill="#F0F6FC" stroke="#0D1117" stroke-width="16"/>
  <ellipse cx="199" cy="194" rx="39" ry="54" fill="#0D1117"/>
  <ellipse cx="313" cy="194" rx="39" ry="54" fill="#0D1117"/>
  <circle cx="184" cy="174" r="12" fill="#58A6FF"/>
  <circle cx="298" cy="174" r="12" fill="#58A6FF"/>
  <rect x="188" y="236" width="23" height="8" rx="4" fill="#39D353"/>
  <rect x="302" y="236" width="23" height="8" rx="4" fill="#39D353"/>
  <circle cx="237" cy="322" r="6" fill="#0D1117"/>
  <circle cx="275" cy="322" r="6" fill="#0D1117"/>
  <path d="M214 346c27 22 57 22 84 0" fill="none" stroke="#0D1117" stroke-width="10" stroke-linecap="round"/>
  <g transform="translate(382 336)" fill="none" stroke="#2F81F7" stroke-width="11" stroke-linecap="round">
    <circle cx="0" cy="54" r="7" fill="#2F81F7" stroke="none"/>
    <path d="M0 30a24 24 0 0 1 24 24"/>
    <path d="M0 3a51 51 0 0 1 51 51"/>
  </g>
</svg>