<svg xmlns="http://www.w3.org/2000/svg" viewBox="0 0 512 512" role="img" aria-labelledby="title desc">
<title id="title">Geo Gecko head</title>
<desc id="desc">A cute cartoon gecko face with big sparkling eyes, rosy cheeks, and a tiny RSS signal.</desc>
<defs>
  <linearGradient id="body" x1="0" y1="0" x2="0" y2="1">
    <stop stop-color="#CFFCEB"/>
    <stop offset="1" stop-color="#8DE6C7"/>
  </linearGradient>
</defs>
<path d="M62 247c0-133 83-202 194-202s194 69 194 202c0 120-78 185-194 185S62 367 62 247Z"
      fill="url(#body)" stroke="#17212B" stroke-width="16"/>
<path d="M166 78l15-29 22 29M238 57l18-32 19 32M310 76l18-28 20 31"
      fill="#9AEACF" stroke="#17212B" stroke-width="10" stroke-linecap="round" stroke-linejoin="round"/>
<ellipse cx="183" cy="227" rx="70" ry="78" fill="#FFF" stroke="#17212B" stroke-width="12"/>
<ellipse cx="329" cy="227" rx="70" ry="78" fill="#FFF" stroke="#17212B" stroke-width="12"/>
<ellipse cx="195" cy="239" rx="39" ry="49" fill="#17212B"/>
<ellipse cx="317" cy="239" rx="39" ry="49" fill="#17212B"/>
<circle cx="179" cy="217" r="14" fill="#FFF"/>
<circle cx="301" cy="217" r="14" fill="#FFF"/>
<circle cx="210" cy="260" r="7" fill="#79C0FF"/>
<circle cx="332" cy="260" r="7" fill="#79C0FF"/>
<path d="M146 151c23-12 47-13 68-5M298 146c21-8 45-7 68 5"
      fill="none" stroke="#17212B" stroke-width="10" stroke-linecap="round"/>
<ellipse cx="112" cy="316" rx="34" ry="18" fill="#FFB3C1" opacity=".78"/>
<ellipse cx="400" cy="316" rx="34" ry="18" fill="#FFB3C1" opacity=".78"/>
<circle cx="99" cy="272" r="7" fill="#65C6A8"/>
<circle cx="120" cy="259" r="5" fill="#65C6A8"/>
<circle cx="413" cy="272" r="7" fill="#65C6A8"/>
<circle cx="392" cy="259" r="5" fill="#65C6A8"/>
<circle cx="241" cy="319" r="5" fill="#17212B"/>
<circle cx="271" cy="319" r="5" fill="#17212B"/>
<path d="M221 339c12 19 23 27 35 27s23-8 35-27" fill="#FF8FA3" stroke="#17212B" stroke-width="8" stroke-linejoin="round"/>
<g transform="translate(385 352)" fill="none" stroke="#58A6FF" stroke-width="10" stroke-linecap="round">
  <circle cx="0" cy="42" r="6" fill="#58A6FF" stroke="none"/>
  <path d="M0 22a20 20 0 0 1 20 20"/>
  <path d="M0 0a42 42 0 0 1 42 42"/>
</g>
</svg>